<?xml version="1.0" encoding="utf-8"?>
<!-- Generator: Adobe Illustrator 21.1.0, SVG Export Plug-In . SVG Version: 6.00 Build 0)  -->
<svg version="1.1" id="Layer_1" xmlns="http://www.w3.org/2000/svg" xmlns:xlink="http://www.w3.org/1999/xlink" x="0px" y="0px"
	 viewBox="0 0 139.9 120" style="enable-background:new 0 0 139.9 120;" xml:space="preserve">
<style type="text/css">
	.st0{fill:#DD052B;}
	.st1{fill:none;stroke:#DD052B;stroke-width:0.1286;stroke-miterlimit:3.8637;}
	.st2{fill:none;stroke:#DD052B;stroke-width:0.4303;stroke-linecap:round;stroke-miterlimit:3.8637;}
	.st3{font-family:'HelveticaNeueLTW1G-Roman';}
	.st4{font-size:8.2077px;}
	.st5{letter-spacing:0.9;}
	.st6{fill:#002D59;}
	.st7{fill:none;stroke:#002D59;stroke-width:0.1286;stroke-miterlimit:3.8637;}
	.st8{fill:#002D59;stroke:#002D59;stroke-width:0.1286;stroke-miterlimit:3.8637;}
	.st9{font-size:3.8851px;}
</style>
<path class="st0" d="M35.2,82.5h1.7L36,80.6L35.2,82.5L35.2,82.5z M49.9,87.7c0.9,0,1.6-0.6,2-1.3H52c0.3,0.9,1.1,1.5,2.1,1.5h8.3
	c2.5,0,4.5-2.1,4.5-4.6s-1.9-4.4-4.4-4.4h-5.8c0,0-0.4-0.2-0.4-0.4c0-0.2,0.5-0.4,0.5-0.4h8c1.2,0,2.2-1,2.2-2.2s-1-2.2-2.2-2.2
	h-8.1c-2.6,0-4.6,2.1-4.6,4.6c0,2.6,2.1,4.5,4.6,4.5H62c0,0,0.4,0,0.4,0.3S62,83.5,62,83.5h-8c-0.9,0-1.7,0.6-2,1.4
	c-0.2-0.9-1.1-1.6-2.1-1.6H47v-1h2.4c0.9,0,1.7-0.7,1.7-1.7c0-0.9-0.8-1.7-1.7-1.7H47v-1h2.9c1.2,0,2.2-1,2.2-2.1
	c0-1.2-0.9-2.2-2.1-2.2h-5.1c-1.2,0-2.2,1-2.2,2.2v8.5L38,74.9c-0.4-0.7-1.2-1.2-2.1-1.2c-0.8,0-1.5,0.4-1.9,1l-4.7,10.4
	c0,0.2-0.1,0.3-0.1,0.5c0,1.2,1,2.2,2.2,2.2c1.2,0,2.2-0.9,2.2-2.1h4.8c0,1.2,0.9,2,2.1,2L49.9,87.7L49.9,87.7z"/>
<path class="st1" d="M35.2,82.5h1.7L36,80.6L35.2,82.5L35.2,82.5z M49.9,87.7c0.9,0,1.6-0.6,2-1.3H52c0.3,0.9,1.1,1.5,2.1,1.5h8.3
	c2.5,0,4.5-2.1,4.5-4.6s-1.9-4.4-4.4-4.4h-5.8c0,0-0.4-0.2-0.4-0.4c0-0.2,0.5-0.4,0.5-0.4h8c1.2,0,2.2-1,2.2-2.2s-1-2.2-2.2-2.2
	h-8.1c-2.6,0-4.6,2.1-4.6,4.6c0,2.6,2.1,4.5,4.6,4.5H62c0,0,0.4,0,0.4,0.3S62,83.5,62,83.5h-8c-0.9,0-1.7,0.6-2,1.4
	c-0.2-0.9-1.1-1.6-2.1-1.6H47v-1h2.4c0.9,0,1.7-0.7,1.7-1.7c0-0.9-0.8-1.7-1.7-1.7H47v-1h2.9c1.2,0,2.2-1,2.2-2.1
	c0-1.2-0.9-2.2-2.1-2.2h-5.1c-1.2,0-2.2,1-2.2,2.2v8.5L38,74.9c-0.4-0.7-1.2-1.2-2.1-1.2c-0.8,0-1.5,0.4-1.9,1l-4.7,10.4
	c0,0.2-0.1,0.3-0.1,0.5c0,1.2,1,2.2,2.2,2.2c1.2,0,2.2-0.9,2.2-2.1h4.8c0,1.2,0.9,2,2.1,2L49.9,87.7L49.9,87.7z"/>
<line class="st2" x1="13.9" y1="94.6" x2="126.1" y2="94.6"/>
<text transform="matrix(1.1224 0 0 1 13.9 106.8691)" class="st0 st3 st4 st5">ASSET MANAGEMENT</text>
<path class="st6" d="M106.5,77.9v0.7h2.3c0,0,0.4,0,0.4-0.3s-0.4-0.4-0.4-0.4L106.5,77.9L106.5,77.9z M102.2,75.8
	c0-1.2,1-2.1,2.2-2.1h5.1c2.5,0,4.5,2.1,4.5,4.6s-1.9,4.4-4.4,4.4h-3v3c0,1.2-1,2.1-2.2,2.1s-2.2-0.9-2.2-2.1V75.8L102.2,75.8z"/>
<path class="st7" d="M106.5,77.9v0.7h2.3c0,0,0.4,0,0.4-0.3s-0.4-0.4-0.4-0.4L106.5,77.9L106.5,77.9z M102.2,75.8
	c0-1.2,1-2.1,2.2-2.1h5.1c2.5,0,4.5,2.1,4.5,4.6s-1.9,4.4-4.4,4.4h-3v3c0,1.2-1,2.1-2.2,2.1s-2.2-0.9-2.2-2.1V75.8L102.2,75.8z"/>
<path class="st6" d="M71.5,77.9v0.7h2.3c0,0,0.4,0,0.4-0.3s-0.4-0.4-0.4-0.4L71.5,77.9L71.5,77.9z M67.1,75.8c0-1.2,1-2.1,2.2-2.1
	h5.1c2.5,0,4.5,2.1,4.5,4.6s-1.9,4.4-4.4,4.4h-3v3c0,1.2-1,2.1-2.2,2.1s-2.2-0.9-2.2-2.1V75.8L67.1,75.8z"/>
<path class="st7" d="M71.5,77.9v0.7h2.3c0,0,0.4,0,0.4-0.3s-0.4-0.4-0.4-0.4L71.5,77.9L71.5,77.9z M67.1,75.8c0-1.2,1-2.1,2.2-2.1
	h5.1c2.5,0,4.5,2.1,4.5,4.6s-1.9,4.4-4.4,4.4h-3v3c0,1.2-1,2.1-2.2,2.1s-2.2-0.9-2.2-2.1V75.8L67.1,75.8z"/>
<path class="st8" d="M101.7,85.9c0,1.2-0.9,2.1-2.1,2.1c-1.3,0-2.1-0.9-2.1-2.1v-7.1c0,0,0-0.3-0.4-0.3c-0.3,0-0.4,0.3-0.4,0.3v7.1
	c0,1.2-0.9,2.1-2.1,2.1c-1.3,0-2-0.9-2-2.1l-0.1-7c0,0,0-0.4-0.3-0.4s-0.4,0.4-0.4,0.4v7c0,1.2-0.9,2.1-2.1,2.1c-1.3,0-2-0.9-2-2.1
	v-7.7c0-2.5,1.9-4.4,4.4-4.4c0.9,0,1.7,0.2,2.4,0.6c0.7-0.4,1.5-0.7,2.5-0.7c2.5,0,4.6,1.9,4.6,4.5L101.7,85.9L101.7,85.9z"/>
<path class="st8" d="M84.3,87.5c-0.1,0-0.8,0.2-1.5,0.2c-0.6,0-1.1-0.1-1.6-0.2c-1.8-0.6-3.1-2.2-3.1-4.2v-7.5c0-1.2,1-2.1,2.2-2.1
	s2.1,0.9,2.1,2.1l-0.1,6.9c0,0,0,0.4,0.4,0.4s0.4-0.4,0.4-0.4L83,75.8c0-1.2,0.9-2.1,2.1-2.1s2.2,0.9,2.2,2.1v7.5
	C87.4,85.3,86.1,86.9,84.3,87.5L84.3,87.5z"/>
<text transform="matrix(1 0 0 1 114.1914 76.3915)" class="st6 st3 st9">™</text>
<path class="st6" d="M42.2,55.9h21c0,0,0.4,0,0.6,0.2c0.2,0.1,0.4,0.4,0.4,0.4l2.8,4.6c0,0,0.2,0.3,0.5,0.4c0.2,0.1,0.5,0.1,0.5,0.1
	h32.6c0,0,1.4,0,2.1,0.4s1.4,1.4,1.4,1.4l2,3.4c0,0,0.4,0.9,0,1.4c-0.5,0.7-1.1,0.6-1.1,0.6H70.5c0,0-0.5,0-0.8-0.2S69.1,68,69.1,68
	l-3.4-5.7c0,0-0.2-0.4-0.4-0.5c-0.3-0.2-0.8-0.1-0.8-0.1H39.4c0,0-0.7,0.1-0.8-0.2c-0.2-0.4,0.1-0.8,0.1-0.8l2.5-4
	c0,0,0.2-0.4,0.5-0.5C41.8,55.9,42.2,55.9,42.2,55.9L42.2,55.9z"/>
<path class="st6" d="M55.6,34.6h7.5c0,0,0.4,0,0.6,0.2c0.2,0.1,0.4,0.4,0.4,0.4l2.8,4.6c0,0,0.2,0.3,0.5,0.4
	c0.2,0.1,0.5,0.1,0.5,0.1h18.9c0,0,1.4,0,2.1,0.4s1.4,1.4,1.4,1.4l1.7,2.8c0,0,0.6,1.1,0,1.9c-0.4,0.7-1.5,0.6-1.5,0.6H70.4
	c0,0-0.5,0-0.8-0.2C69.3,47,69,46.6,69,46.6l-3.4-5.7c0,0-0.2-0.4-0.4-0.5c-0.3-0.2-0.8-0.1-0.8-0.1H52.8c0,0-0.7,0.1-0.8-0.2
	c-0.2-0.4,0.1-0.8,0.1-0.8l2.5-4c0,0,0.2-0.4,0.5-0.5C55.2,34.6,55.6,34.6,55.6,34.6L55.6,34.6z"/>
<path class="st0" d="M70,12.7c1.5,0,2.6,1.8,2.6,1.8L85,33.7c0,0,0.7,1,0.2,2c-0.4,0.8-1.6,0.9-1.6,0.9H70.1c0,0-0.5,0-0.7-0.2
	c-0.2-0.1-0.5-0.5-0.5-0.5l-3.5-5.6c0,0-0.3-0.4-0.6-0.5c-0.3-0.2-0.9-0.2-0.9-0.2h-4.1c0,0-0.9,0.1-1.1-0.4C58.4,28.6,59,28,59,28
	l8.1-13.2C67.2,14.7,68.2,12.7,70,12.7L70,12.7z"/>
<path class="st6" d="M48.9,45.3h14.2c0,0,0.4,0,0.6,0.2c0.2,0.1,0.4,0.4,0.4,0.4l2.8,4.6c0,0,0.2,0.3,0.5,0.4
	c0.2,0.1,0.5,0.1,0.5,0.1h25.6c0,0,1.4,0,2.1,0.4s1.4,1.4,1.4,1.4l1.7,2.8c0,0,0.6,1.1,0,1.9C98.4,58,97.3,58,97.3,58H70.5
	c0,0-0.5,0-0.8-0.2s-0.6-0.6-0.6-0.6l-3.4-5.7c0,0-0.2-0.4-0.4-0.5c-0.3-0.2-0.8-0.1-0.8-0.1H46.1c0,0-0.7,0.1-0.8-0.2
	c-0.2-0.4,0.1-0.8,0.1-0.8l2.5-4c0,0,0.2-0.4,0.5-0.5C48.5,45.3,48.9,45.3,48.9,45.3L48.9,45.3z"/>
</svg>
