<?xml version="1.0" encoding="utf-8"?>
<!-- Generator: Adobe Illustrator 21.1.0, SVG Export Plug-In . SVG Version: 6.00 Build 0)  -->
<svg version="1.1" id="Layer_1" xmlns="http://www.w3.org/2000/svg" xmlns:xlink="http://www.w3.org/1999/xlink" x="0px" y="0px"
	 viewBox="0 0 194 59" style="enable-background:new 0 0 194 59;" xml:space="preserve">
<style type="text/css">
	.st0{fill-rule:evenodd;clip-rule:evenodd;fill:#DD052B;}
	.st1{fill:none;stroke:#DD052B;stroke-width:0.237;stroke-miterlimit:3.8637;}
	.st2{fill:#002D59;}
	.st3{fill:none;stroke:#002D59;stroke-width:0.237;stroke-miterlimit:3.8637;}
	.st4{fill:#002D59;stroke:#002D59;stroke-width:0.237;stroke-miterlimit:3.8637;}
	.st5{font-family:'HelveticaNeueLTW1G-Roman';}
	.st6{font-size:7.1601px;}
</style>
<g>
	<path class="st0" d="M29.6,32.9l3.1,0l-1.6-3.6L29.6,32.9L29.6,32.9z M56.6,42.5c1.7,0,3-1,3.6-2.5l0.2,0c0.5,1.6,2,2.7,3.8,2.7
		h15.3c4.7,0,8.3-3.8,8.3-8.5c0-4.7-3.5-8.1-8.2-8.1l-10.8,0c0,0-0.8-0.3-0.8-0.7c0-0.4,0.8-0.7,0.8-0.7h14.7c2.3,0,4.1-1.8,4.1-4
		c0-2.2-1.8-4-4.1-4h-15c-4.7,0-8.5,3.8-8.5,8.5c0,4.7,3.8,8.3,8.5,8.3h9.7c0,0,0.8,0.1,0.8,0.6c0,0.5-0.8,0.7-0.8,0.7H64.2
		c-1.7,0-3.2,1.1-3.7,2.6c-0.4-1.7-2-3-3.9-3h-5.3l0-1.8h4.3c1.7,0,3.1-1.4,3.1-3.1c0-1.7-1.4-3.1-3.1-3.1h-4.3v-1.8l5.3,0
		c2.2,0,4-1.8,4-3.9c0-2.2-1.7-4-3.9-4l-9.5,0c-2.2,0-4.1,1.8-4.1,4l0,15.6l-8.4-17.5c-0.7-1.3-2.3-2.3-3.9-2.3
		c-1.4,0-2.7,0.8-3.4,1.9l-8.6,19.1c-0.1,0.3-0.1,0.6-0.1,0.9c0,2.2,1.8,4,4,4c2.2,0,4.1-1.7,4-3.8h8.9c0,2.1,1.7,3.7,3.9,3.7H56.6
		L56.6,42.5z"/>
	<path class="st1" d="M29.6,32.9l3.1,0l-1.6-3.6L29.6,32.9L29.6,32.9z M56.6,42.5c1.7,0,3-1,3.6-2.5l0.2,0c0.5,1.6,2,2.7,3.8,2.7
		h15.3c4.7,0,8.3-3.8,8.3-8.5c0-4.7-3.5-8.1-8.2-8.1l-10.8,0c0,0-0.8-0.3-0.8-0.7c0-0.4,0.8-0.7,0.8-0.7h14.7c2.3,0,4.1-1.8,4.1-4
		c0-2.2-1.8-4-4.1-4h-15c-4.7,0-8.5,3.8-8.5,8.5c0,4.7,3.8,8.3,8.5,8.3h9.7c0,0,0.8,0.1,0.8,0.6c0,0.5-0.8,0.7-0.8,0.7H64.2
		c-1.7,0-3.2,1.1-3.7,2.6c-0.4-1.7-2-3-3.9-3h-5.3l0-1.8h4.3c1.7,0,3.1-1.4,3.1-3.1c0-1.7-1.4-3.1-3.1-3.1h-4.3v-1.8l5.3,0
		c2.2,0,4-1.8,4-3.9c0-2.2-1.7-4-3.9-4l-9.5,0c-2.2,0-4.1,1.8-4.1,4l0,15.6l-8.4-17.5c-0.7-1.3-2.3-2.3-3.9-2.3
		c-1.4,0-2.7,0.8-3.4,1.9l-8.6,19.1c-0.1,0.3-0.1,0.6-0.1,0.9c0,2.2,1.8,4,4,4c2.2,0,4.1-1.7,4-3.8h8.9c0,2.1,1.7,3.7,3.9,3.7H56.6
		L56.6,42.5z"/>
	<path class="st2" d="M161.1,24.4l0,1.3h4.3c0,0,0.8-0.1,0.8-0.6c0-0.6-0.8-0.7-0.8-0.7H161.1L161.1,24.4z M153.1,20.5
		c0-2.2,1.8-3.9,4-3.9h9.4c4.7,0,8.3,3.8,8.3,8.5c0,4.7-3.5,8.1-8.2,8.1l-5.6,0l0,5.4c0,2.2-1.8,3.9-4,3.9c-2.2,0-4.1-1.7-4-3.9
		L153.1,20.5L153.1,20.5z"/>
	<path class="st3" d="M161.1,24.4l0,1.3h4.3c0,0,0.8-0.1,0.8-0.6c0-0.6-0.8-0.7-0.8-0.7H161.1L161.1,24.4z M153.1,20.5
		c0-2.2,1.8-3.9,4-3.9h9.4c4.7,0,8.3,3.8,8.3,8.5c0,4.7-3.5,8.1-8.2,8.1l-5.6,0l0,5.4c0,2.2-1.8,3.9-4,3.9c-2.2,0-4.1-1.7-4-3.9
		L153.1,20.5L153.1,20.5z"/>
	<path class="st2" d="M96.5,24.4l0,1.3h4.3c0,0,0.8,0,0.8-0.6c0-0.6-0.8-0.7-0.8-0.7H96.5L96.5,24.4z M88.4,20.5
		c0-2.2,1.8-3.9,4-3.9h9.4c4.7,0,8.3,3.8,8.3,8.5c0,4.7-3.5,8.1-8.2,8.1l-5.6,0l0,5.4c0,2.2-1.8,3.9-4,3.9c-2.2,0-4-1.7-4-3.9
		L88.4,20.5L88.4,20.5z"/>
	<path class="st3" d="M96.5,24.4l0,1.3h4.3c0,0,0.8,0,0.8-0.6c0-0.6-0.8-0.7-0.8-0.7H96.5L96.5,24.4z M88.4,20.5
		c0-2.2,1.8-3.9,4-3.9h9.4c4.7,0,8.3,3.8,8.3,8.5c0,4.7-3.5,8.1-8.2,8.1l-5.6,0l0,5.4c0,2.2-1.8,3.9-4,3.9c-2.2,0-4-1.7-4-3.9
		L88.4,20.5L88.4,20.5z"/>
	<path class="st4" d="M152.2,39.1c0,2.2-1.7,3.9-3.9,3.9c-2.3,0-3.8-1.7-3.8-3.9l0-13.1c0,0-0.1-0.6-0.7-0.6c-0.6,0-0.6,0.6-0.6,0.6
		l0,13.1c0,2.2-1.6,3.9-3.8,3.9c-2.3,0-3.7-1.7-3.7-3.9l-0.1-13c0,0,0-0.8-0.6-0.8c-0.6,0-0.7,0.8-0.7,0.8l0,13
		c0,2.2-1.6,3.9-3.8,3.9c-2.3,0-3.7-1.7-3.7-3.9l0-14.2c0-4.7,3.4-8.2,8.1-8.2c1.6,0,3.1,0.4,4.4,1.2c1.3-0.8,2.8-1.3,4.5-1.3
		c4.7,0,8.5,3.6,8.5,8.3V39.1L152.2,39.1z"/>
	<path class="st4" d="M120.1,42.1c-0.2,0.1-1.5,0.4-2.8,0.4c-1,0-2-0.1-2.9-0.4c-3.3-1.1-5.7-4.1-5.7-7.8l0-13.8
		c0-2.2,1.8-3.9,4-3.9c2.2,0,3.9,1.7,3.9,3.9l-0.1,12.6c0,0,0.1,0.8,0.7,0.8c0.7,0,0.7-0.8,0.7-0.8l-0.1-12.6c0-2.2,1.7-3.9,3.9-3.9
		c2.2,0,4,1.7,4,3.9l0,13.8C125.8,38,123.4,41,120.1,42.1L120.1,42.1z"/>
	<text transform="matrix(1 0 0 1 175.197 21.5946)" class="st2 st5 st6">™</text>
</g>
</svg>
